<svg id="SvgjsSvg1016" width="5000" height="1437" xmlns="http://www.w3.org/2000/svg" version="1.1" xmlns:xlink="http://www.w3.org/1999/xlink" xmlns:svgjs="http://svgjs.com/svgjs" viewBox="0 0 400 115"><defs id="SvgjsDefs1017"></defs><g id="SvgjsG1019"><svg width="400" height="115" x="0" y="0" xmlns="http://www.w3.org/2000/svg" version="1.1" xmlns:xlink="http://www.w3.org/1999/xlink" xmlns:svgjs="http://svgjs.com/svgjs" preserveAspectRatio="none"><rect width="397" height="112" stroke-width="3" stroke="#212121" stroke-opacity="1" fill="#ededed" fill-opacity="1" x="1.5" y="1.5" rx="0" ry="0"></rect><defs id="SvgjsDefs1018"></defs></svg></g><g id="SvgjsG1021" transform="rotate(0 56.51666259765625 56.25)"><svg xmlns="http://www.w3.org/2000/svg" data-name="Layer 1" viewBox="14.12109375 9.421875 61.7578125 71.15625" x="16.51666259765625" y="10.449996948242188" width="80" height="91.60000610351562" version="1.1" xmlns:xlink="http://www.w3.org/1999/xlink" xmlns:svgjs="http://svgjs.com/svgjs" preserveAspectRatio="none" fill="#ef6916" stroke="none"><title>Shape 022</title><path d="M45.13,9.42,14.25,27.1l-.13,35.58,30.75,17.9L75.75,62.9l.13-35.58Zm-29,52.11.12-33.27L45.12,11.73,73.87,28.47h0L45,45l-.12,33.27Z"></path><defs id="SvgjsDefs1020"></defs></svg></g><g id="SvgjsG1023" transform="rotate(0 246 45.741661071777344)"><svg xmlns="http://www.w3.org/2000/svg" xmlns:xlink="http://www.w3.org/1999/xlink" width="274.9666748046875" viewBox="0.41015625 2.87890625 273 21.7421875" overflow="visible" style="overflow: visible;" transform="" version="1.1" xmlns:svgjs="http://svgjs.com/svgjs" preserveAspectRatio="none" height="22.150009155273438" x="108.51666259765625" y="34.666656494140625" fill="#000000" stroke="none"><path stroke="none" fill="#212121" d="M4.66 19.68L2.86 19.68L2.86 9.26L0.41 9.26L0.41 7.68L2.86 7.68L2.86 3.38L4.66 3.38L4.66 7.68L7.42 7.68L7.42 9.26L4.66 9.26L4.66 19.68ZM14.35 7.49L14.35 7.49L14.35 7.49Q17.04 7.49 18.72 9.29L18.72 9.29L18.72 9.29Q20.30 11.02 20.30 13.68L20.30 13.68L20.30 13.68Q20.30 16.34 18.72 18.07L18.72 18.07L18.72 18.07Q17.04 19.87 14.35 19.87L14.35 19.87L14.35 19.87Q11.66 19.87 9.98 18.07L9.98 18.07L9.98 18.07Q8.40 16.34 8.40 13.68L8.40 13.68L8.40 13.68Q8.40 11.02 9.98 9.29L9.98 9.29L9.98 9.29Q11.66 7.49 14.35 7.49ZM14.35 18.24L14.35 18.24L14.35 18.24Q16.30 18.24 17.42 16.90L17.42 16.90L17.42 16.90Q18.50 15.62 18.50 13.68L18.50 13.68L18.50 13.68Q18.50 11.74 17.42 10.46L17.42 10.46L17.42 10.46Q16.30 9.12 14.35 9.12L14.35 9.12L14.35 9.12Q12.41 9.12 11.28 10.46L11.28 10.46L11.28 10.46Q10.20 11.74 10.20 13.68L10.20 13.68L10.20 13.68Q10.20 15.62 11.28 16.90L11.28 16.90L11.28 16.90Q12.41 18.24 14.35 18.24ZM24.48 2.88L24.48 9.62L24.48 9.62Q25.94 7.49 28.78 7.49L28.78 7.49L28.78 7.49Q31.37 7.49 32.98 9.29L32.98 9.29L32.98 9.29Q34.58 11.06 34.58 13.68L34.58 13.68L34.58 13.68Q34.58 16.30 32.98 18.07L32.98 18.07L32.98 18.07Q31.37 19.87 28.64 19.87L28.64 19.87L28.64 19.87Q25.92 19.87 24.48 17.76L24.48 17.76L24.48 19.68L22.68 19.68L22.68 2.88L24.48 2.88ZM28.54 18.24L28.54 18.24L28.54 18.24Q30.46 18.24 31.66 16.90L31.66 16.90L31.66 16.90Q32.78 15.62 32.78 13.68L32.78 13.68L32.78 13.68Q32.78 11.74 31.66 10.46L31.66 10.46L31.66 10.46Q30.46 9.12 28.54 9.12L28.54 9.12L28.54 9.12Q26.59 9.12 25.46 10.46L25.46 10.46L25.46 10.46Q24.38 11.74 24.38 13.68L24.38 13.68L24.38 13.68Q24.38 15.62 25.46 16.90L25.46 16.90L25.46 16.90Q26.59 18.24 28.54 18.24ZM47.06 7.68L39.96 24.43L38.02 24.43L40.20 19.51L35.30 7.68L37.30 7.68L41.16 17.52L45.10 7.68L47.06 7.68ZM57.86 19.68L57.86 17.76L57.86 17.76Q56.42 19.87 53.57 19.87L53.57 19.87L53.57 19.87Q50.98 19.87 49.34 18.07L49.34 18.07L49.34 18.07Q47.76 16.30 47.76 13.68L47.76 13.68L47.76 13.68Q47.76 11.06 49.34 9.29L49.34 9.29L49.34 9.29Q50.98 7.49 53.69 7.49L53.69 7.49L53.69 7.49Q56.40 7.49 57.86 9.62L57.86 9.62L57.86 2.88L59.66 2.88L59.66 19.68L57.86 19.68ZM53.81 18.24L53.81 18.24L53.81 18.24Q55.75 18.24 56.88 16.90L56.88 16.90L56.88 16.90Q57.96 15.62 57.96 13.68L57.96 13.68L57.96 13.68Q57.96 11.74 56.88 10.46L56.88 10.46L56.88 10.46Q55.75 9.12 53.81 9.12L53.81 9.12L53.81 9.12Q51.89 9.12 50.69 10.46L50.69 10.46L50.69 10.46Q49.56 11.74 49.56 13.68L49.56 13.68L49.56 13.68Q49.56 15.62 50.69 16.90L50.69 16.90L50.69 16.90Q51.89 18.24 53.81 18.24ZM68.14 18.24L68.14 18.24L68.14 18.24Q70.56 18.24 71.62 16.22L71.62 16.22L73.58 16.22L73.58 16.22Q72.96 17.86 71.60 18.86L71.60 18.86L71.60 18.86Q70.25 19.87 68.11 19.87L68.11 19.87L68.11 19.87Q65.40 19.87 63.70 18.07L63.70 18.07L63.70 18.07Q62.04 16.32 62.04 13.68L62.04 13.68L62.04 13.68Q62.04 11.02 63.62 9.29L63.62 9.29L63.62 9.29Q65.30 7.49 67.99 7.49L67.99 7.49L67.99 7.49Q70.68 7.49 72.36 9.29L72.36 9.29L72.36 9.29Q73.94 11.02 73.94 13.68L73.94 13.68L73.94 14.40L63.89 14.40L63.89 14.40Q64.08 16.06 65.21 17.14L65.21 17.14L65.21 17.14Q66.36 18.24 68.14 18.24ZM67.99 9.12L67.99 9.12L67.99 9.12Q66.34 9.12 65.21 10.15L65.21 10.15L65.21 10.15Q64.15 11.14 63.91 12.72L63.91 12.72L72.07 12.72L72.07 12.72Q71.83 11.14 70.78 10.15L70.78 10.15L70.78 10.15Q69.65 9.12 67.99 9.12ZM84.14 7.68L86.11 7.68L81.43 19.68L79.32 19.68L74.62 7.68L76.58 7.68L80.38 17.76L84.14 7.68ZM89.59 2.88L89.59 19.68L87.79 19.68L87.79 2.88L89.59 2.88ZM92.71 19.68L92.71 7.68L94.51 7.68L94.51 19.68L92.71 19.68ZM92.64 3.31L94.58 3.31L94.58 5.66L92.64 5.66L92.64 3.31ZM97.63 7.68L99.43 7.68L99.43 9.55L99.43 9.55Q100.08 8.69 101.02 8.09L101.02 8.09L101.02 8.09Q101.95 7.49 103.15 7.49L103.15 7.49L103.15 7.49Q104.35 7.49 105.22 7.82L105.22 7.82L105.22 7.82Q106.08 8.16 106.73 8.83L106.73 8.83L106.73 8.83Q108.22 10.30 108.22 12.70L108.22 12.70L108.22 19.68L106.42 19.68L106.42 12.74L106.42 12.74Q106.42 11.09 105.48 10.10L105.48 10.10L105.48 10.10Q104.54 9.12 103.06 9.12L103.06 9.12L103.06 9.12Q101.54 9.12 100.49 10.13L100.49 10.13L100.49 10.13Q99.43 11.16 99.43 12.77L99.43 12.77L99.43 19.68L97.63 19.68L97.63 7.68ZM110.93 17.23L113.26 17.23L113.26 19.68L110.93 19.68L110.93 17.23ZM121.63 18.24L121.63 18.24L121.63 18.24Q122.78 18.24 123.67 17.59L123.67 17.59L123.67 17.59Q124.56 16.94 124.97 15.91L124.97 15.91L126.91 15.91L126.91 15.91Q126.36 17.69 124.90 18.77L124.90 18.77L124.90 18.77Q123.36 19.87 121.25 19.87L121.25 19.87L121.25 19.87Q118.61 19.87 116.95 18.07L116.95 18.07L116.95 18.07Q115.34 16.32 115.34 13.68L115.34 13.68L115.34 13.68Q115.34 11.04 116.95 9.29L116.95 9.29L116.95 9.29Q118.61 7.49 121.25 7.49L121.25 7.49L121.25 7.49Q123.36 7.49 124.90 8.59L124.90 8.59L124.90 8.59Q126.36 9.67 126.91 11.45L126.91 11.45L124.97 11.45L124.97 11.45Q124.56 10.42 123.67 9.77L123.67 9.77L123.67 9.77Q122.78 9.12 121.63 9.12L121.63 9.12L121.63 9.12Q120.48 9.12 119.68 9.48L119.68 9.48L119.68 9.48Q118.87 9.84 118.32 10.46L118.32 10.46L118.32 10.46Q117.14 11.76 117.14 13.68L117.14 13.68L117.14 13.68Q117.14 15.60 118.32 16.90L118.32 16.90L118.32 16.90Q119.52 18.24 121.63 18.24ZM134.35 7.49L134.35 7.49L134.35 7.49Q137.04 7.49 138.72 9.29L138.72 9.29L138.72 9.29Q140.30 11.02 140.30 13.68L140.30 13.68L140.30 13.68Q140.30 16.34 138.72 18.07L138.72 18.07L138.72 18.07Q137.04 19.87 134.35 19.87L134.35 19.87L134.35 19.87Q131.66 19.87 129.98 18.07L129.98 18.07L129.98 18.07Q128.40 16.34 128.40 13.68L128.40 13.68L128.40 13.68Q128.40 11.02 129.98 9.29L129.98 9.29L129.98 9.29Q131.66 7.49 134.35 7.49ZM134.35 18.24L134.35 18.24L134.35 18.24Q136.30 18.24 137.42 16.90L137.42 16.90L137.42 16.90Q138.50 15.62 138.50 13.68L138.50 13.68L138.50 13.68Q138.50 11.74 137.42 10.46L137.42 10.46L137.42 10.46Q136.30 9.12 134.35 9.12L134.35 9.12L134.35 9.12Q132.41 9.12 131.28 10.46L131.28 10.46L131.28 10.46Q130.20 11.74 130.20 13.68L130.20 13.68L130.20 13.68Q130.20 15.62 131.28 16.90L131.28 16.90L131.28 16.90Q132.41 18.24 134.35 18.24ZM144.48 7.68L144.48 9.50L144.48 9.50Q145.68 7.49 148.13 7.49L148.13 7.49L148.13 7.49Q149.33 7.49 150.35 8.12L150.35 8.12L150.35 8.12Q151.37 8.76 151.94 9.91L151.94 9.91L151.94 9.91Q152.76 8.40 154.49 7.75L154.49 7.75L154.49 7.75Q155.18 7.49 156.06 7.49L156.06 7.49L156.06 7.49Q156.94 7.49 157.74 7.84L157.74 7.84L157.74 7.84Q158.54 8.18 159.17 8.83L159.17 8.83L159.17 8.83Q160.51 10.27 160.51 12.43L160.51 12.43L160.51 19.68L158.71 19.68L158.71 12.48L158.71 12.48Q158.71 10.99 157.87 10.03L157.87 10.03L157.87 10.03Q157.03 9.12 155.74 9.12L155.74 9.12L155.74 9.12Q154.37 9.12 153.46 10.01L153.46 10.01L153.46 10.01Q152.50 10.92 152.50 12.50L152.50 12.50L152.50 19.68L150.70 19.68L150.70 12.48L150.70 12.48Q150.70 10.99 149.86 10.03L149.86 10.03L149.86 10.03Q149.02 9.12 147.72 9.12L147.72 9.12L147.72 9.12Q146.35 9.12 145.44 10.01L145.44 10.01L145.44 10.01Q144.48 10.92 144.48 12.50L144.48 12.50L144.48 19.68L142.68 19.68L142.68 7.68L144.48 7.68ZM168.34 13.46L168.34 11.71L174.34 11.71L174.34 13.46L168.34 13.46ZM193.94 3.79L193.94 5.52L188.40 5.52L188.40 19.68L186.60 19.68L186.60 5.52L181.06 5.52L181.06 3.79L193.94 3.79ZM195.84 2.88L197.64 2.88L197.64 9.55L197.64 9.55Q198.29 8.69 199.22 8.09L199.22 8.09L199.22 8.09Q200.16 7.49 201.36 7.49L201.36 7.49L201.36 7.49Q202.56 7.49 203.42 7.82L203.42 7.82L203.42 7.82Q204.29 8.16 204.94 8.83L204.94 8.83L204.94 8.83Q206.42 10.30 206.42 12.70L206.42 12.70L206.42 19.68L204.62 19.68L204.62 12.74L204.62 12.74Q204.62 11.09 203.69 10.10L203.69 10.10L203.69 10.10Q202.75 9.12 201.26 9.12L201.26 9.12L201.26 9.12Q199.75 9.12 198.70 10.13L198.70 10.13L198.70 10.13Q197.64 11.16 197.64 12.77L197.64 12.77L197.64 19.68L195.84 19.68L195.84 2.88ZM214.78 18.24L214.78 18.24L214.78 18.24Q217.20 18.24 218.26 16.22L218.26 16.22L220.22 16.22L220.22 16.22Q219.60 17.86 218.24 18.86L218.24 18.86L218.24 18.86Q216.89 19.87 214.75 19.87L214.75 19.87L214.75 19.87Q212.04 19.87 210.34 18.07L210.34 18.07L210.34 18.07Q208.68 16.32 208.68 13.68L208.68 13.68L208.68 13.68Q208.68 11.02 210.26 9.29L210.26 9.29L210.26 9.29Q211.94 7.49 214.63 7.49L214.63 7.49L214.63 7.49Q217.32 7.49 219 9.29L219 9.29L219 9.29Q220.58 11.02 220.58 13.68L220.58 13.68L220.58 14.40L210.53 14.40L210.53 14.40Q210.72 16.06 211.85 17.14L211.85 17.14L211.85 17.14Q213 18.24 214.78 18.24ZM214.63 9.12L214.63 9.12L214.63 9.12Q212.98 9.12 211.85 10.15L211.85 10.15L211.85 10.15Q210.79 11.14 210.55 12.72L210.55 12.72L218.71 12.72L218.71 12.72Q218.47 11.14 217.42 10.15L217.42 10.15L217.42 10.15Q216.29 9.12 214.63 9.12ZM240.43 7.99L240.43 7.99L240.43 7.99Q240.43 10.61 238.30 11.57L238.30 11.57L238.30 11.57Q240.26 12.22 240.98 13.94L240.98 13.94L240.98 13.94Q241.25 14.62 241.25 15.50L241.25 15.50L241.25 15.50Q241.25 18.38 238.20 19.34L238.20 19.34L238.20 19.34Q237.19 19.68 235.82 19.68L235.82 19.68L228.29 19.68L228.29 3.79L235.42 3.79L235.42 3.79Q237.98 3.79 239.33 5.18L239.33 5.18L239.33 5.18Q240.43 6.29 240.43 7.99ZM230.09 5.50L230.09 10.90L235.42 10.90L235.42 10.90Q237.62 10.90 238.37 9.38L238.37 9.38L238.37 9.38Q238.63 8.86 238.63 8.24L238.63 8.24L238.63 8.24Q238.63 7.63 238.46 7.16L238.46 7.16L238.46 7.16Q238.30 6.70 237.94 6.34L237.94 6.34L237.94 6.34Q237.14 5.50 235.61 5.50L235.61 5.50L230.09 5.50ZM230.09 17.98L236.02 17.98L236.02 17.98Q237.67 17.98 238.56 17.29L238.56 17.29L238.56 17.29Q239.45 16.61 239.45 15.36L239.45 15.36L239.45 15.36Q239.45 14.16 238.58 13.39L238.58 13.39L238.58 13.39Q237.62 12.53 235.82 12.53L235.82 12.53L230.09 12.53L230.09 17.98ZM245.59 2.88L245.59 19.68L243.79 19.68L243.79 2.88L245.59 2.88ZM253.92 7.49L253.92 7.49L253.92 7.49Q256.61 7.49 258.29 9.29L258.29 9.29L258.29 9.29Q259.87 11.02 259.87 13.68L259.87 13.68L259.87 13.68Q259.87 16.34 258.29 18.07L258.29 18.07L258.29 18.07Q256.61 19.87 253.92 19.87L253.92 19.87L253.92 19.87Q251.23 19.87 249.55 18.07L249.55 18.07L249.55 18.07Q247.97 16.34 247.97 13.68L247.97 13.68L247.97 13.68Q247.97 11.02 249.55 9.29L249.55 9.29L249.55 9.29Q251.23 7.49 253.92 7.49ZM253.92 18.24L253.92 18.24L253.92 18.24Q255.86 18.24 256.99 16.90L256.99 16.90L256.99 16.90Q258.07 15.62 258.07 13.68L258.07 13.68L258.07 13.68Q258.07 11.74 256.99 10.46L256.99 10.46L256.99 10.46Q255.86 9.12 253.92 9.12L253.92 9.12L253.92 9.12Q251.98 9.12 250.85 10.46L250.85 10.46L250.85 10.46Q249.77 11.74 249.77 13.68L249.77 13.68L249.77 13.68Q249.77 15.62 250.85 16.90L250.85 16.90L250.85 16.90Q251.98 18.24 253.92 18.24ZM271.61 9.60L271.61 9.60L271.61 7.68L273.41 7.68L273.41 19.32L273.41 19.32Q273.41 21.91 271.93 23.27L271.93 23.27L271.93 23.27Q270.46 24.62 267.96 24.62L267.96 24.62L267.96 24.62Q265.46 24.62 264.06 23.66L264.06 23.66L264.06 23.66Q262.66 22.70 262.15 21.12L262.15 21.12L264.14 21.12L264.14 21.12Q264.91 22.99 267.65 22.99L267.65 22.99L267.65 22.99Q269.74 22.99 270.67 22.03L270.67 22.03L270.67 22.03Q271.61 21.07 271.61 19.20L271.61 19.20L271.61 17.54L271.61 17.54Q270.14 19.68 267.31 19.68L267.31 19.68L267.31 19.68Q264.72 19.68 263.09 17.90L263.09 17.90L263.09 17.90Q261.50 16.18 261.50 13.58L261.50 13.58L261.50 13.58Q261.50 10.99 263.09 9.26L263.09 9.26L263.09 9.26Q264.72 7.49 267.44 7.49L267.44 7.49L267.44 7.49Q270.17 7.49 271.61 9.60ZM267.55 18.05L267.55 18.05L267.55 18.05Q268.54 18.05 269.30 17.70L269.30 17.70L269.30 17.70Q270.07 17.35 270.62 16.75L270.62 16.75L270.62 16.75Q271.70 15.50 271.70 13.58L271.70 13.58L271.70 13.58Q271.70 11.66 270.62 10.42L270.62 10.42L270.62 10.42Q269.45 9.12 267.55 9.12L267.55 9.12L267.55 9.12Q265.61 9.12 264.43 10.42L264.43 10.42L264.43 10.42Q263.30 11.69 263.30 13.58L263.30 13.58L263.30 13.58Q263.30 15.48 264.43 16.75L264.43 16.75L264.43 16.75Q265.61 18.05 267.55 18.05Z" transform="rotate(0 136.91015625 13.75)"></path><defs id="SvgjsDefs1022"></defs></svg></g><g id="SvgjsG1025" transform="rotate(0 147.10832977294922 72.23332977294922)"><svg xmlns="http://www.w3.org/2000/svg" xmlns:xlink="http://www.w3.org/1999/xlink" width="77.18333435058594" viewBox="1.08984375 3.05859375 76.0390625 11.04296875" overflow="visible" style="overflow: visible;" transform="" version="1.1" xmlns:svgjs="http://svgjs.com/svgjs" preserveAspectRatio="none" height="11.166671752929688" x="108.51666259765625" y="66.64999389648438" fill="#000000" stroke="none"><path stroke="none" fill="#60611d" d="M10.02 4.05L10.02 13.95L7.15 13.95L4.08 8.59L3.33 7.09L3.31 7.09L3.38 8.95L3.38 13.95L1.09 13.95L1.09 4.05L3.96 4.05L7.04 9.40L7.79 10.90L7.80 10.90L7.74 9.04L7.74 4.05L10.02 4.05ZM19.27 10.09L19.27 10.09Q19.27 10.61 19.20 10.93L19.20 10.93L14.08 10.93L14.08 10.93Q14.21 11.64 14.60 11.97L14.60 11.97L14.60 11.97Q15 12.30 15.66 12.30L15.66 12.30L15.66 12.30Q16.21 12.30 16.57 12.09L16.57 12.09L16.57 12.09Q16.92 11.88 17.04 11.47L17.04 11.47L19.11 12.13L19.11 12.13Q18.79 13.09 17.89 13.60L17.89 13.60L17.89 13.60Q16.98 14.10 15.66 14.10L15.66 14.10L15.66 14.10Q13.70 14.10 12.65 13.08L12.65 13.08L12.65 13.08Q11.61 12.06 11.61 10.20L11.61 10.20L11.61 10.20Q11.61 8.34 12.63 7.32L12.63 7.32L12.63 7.32Q13.65 6.30 15.52 6.30L15.52 6.30L15.52 6.30Q17.34 6.30 18.31 7.30L18.31 7.30L18.31 7.30Q19.27 8.29 19.27 10.09L19.27 10.09ZM15.51 8.08L15.51 8.08Q14.29 8.08 14.07 9.55L14.07 9.55L16.89 9.55L16.89 9.55Q16.71 8.08 15.51 8.08L15.51 8.08ZM25.34 6.30L25.34 6.30Q25.84 6.30 26.14 6.46L26.14 6.46L25.88 8.63L25.88 8.63Q25.73 8.54 25.47 8.47L25.47 8.47L25.47 8.47Q25.21 8.40 24.93 8.40L24.93 8.40L24.93 8.40Q24.21 8.40 23.73 8.86L23.73 8.86L23.73 8.86Q23.25 9.31 23.25 10.17L23.25 10.17L23.25 13.95L20.70 13.95L20.70 6.45L22.95 6.45L23.05 8.07L23.05 8.07Q23.32 7.21 23.90 6.76L23.90 6.76L23.90 6.76Q24.48 6.30 25.34 6.30L25.34 6.30ZM32.12 3.27L34.66 3.27L34.66 13.95L32.37 13.95L32.28 12.52L32.28 12.52Q31.95 13.26 31.31 13.68L31.31 13.68L31.31 13.68Q30.68 14.10 29.84 14.10L29.84 14.10L29.84 14.10Q28.38 14.10 27.56 13.08L27.56 13.08L27.56 13.08Q26.75 12.06 26.75 10.23L26.75 10.23L26.75 10.23Q26.75 8.37 27.57 7.33L27.57 7.33L27.57 7.33Q28.39 6.30 29.85 6.30L29.85 6.30L29.85 6.30Q30.64 6.30 31.21 6.67L31.21 6.67L31.21 6.67Q31.79 7.05 32.12 7.71L32.12 7.71L32.12 3.27ZM30.72 12.22L30.72 12.22Q31.34 12.22 31.70 11.78L31.70 11.78L31.70 11.78Q32.07 11.34 32.12 10.50L32.12 10.50L32.12 9.90L32.12 9.90Q32.07 9.07 31.70 8.63L31.70 8.63L31.70 8.63Q31.34 8.18 30.72 8.18L30.72 8.18L30.72 8.18Q30.04 8.18 29.68 8.67L29.68 8.67L29.68 8.67Q29.31 9.16 29.31 10.20L29.31 10.20L29.31 10.20Q29.31 11.23 29.68 11.73L29.68 11.73L29.68 11.73Q30.04 12.22 30.72 12.22L30.72 12.22ZM44.82 3.90L44.82 3.90Q46.23 3.90 47.23 4.32L47.23 4.32L47.23 4.32Q48.22 4.74 49.08 5.68L49.08 5.68L47.63 7.36L47.63 7.36Q47.13 6.61 46.46 6.26L46.46 6.26L46.46 6.26Q45.79 5.91 44.86 5.91L44.86 5.91L44.86 5.91Q44.08 5.91 43.66 6.18L43.66 6.18L43.66 6.18Q43.24 6.45 43.24 6.90L43.24 6.90L43.24 6.90Q43.24 7.27 43.69 7.51L43.69 7.51L43.69 7.51Q44.13 7.74 45.19 7.93L45.19 7.93L45.19 7.93Q47.25 8.31 48.13 9.03L48.13 9.03L48.13 9.03Q49.00 9.75 49.00 11.05L49.00 11.05L49.00 11.05Q49.00 12 48.46 12.69L48.46 12.69L48.46 12.69Q47.92 13.38 46.97 13.74L46.97 13.74L46.97 13.74Q46.02 14.10 44.82 14.10L44.82 14.10L44.82 14.10Q43.14 14.10 42.09 13.69L42.09 13.69L42.09 13.69Q41.04 13.27 40.27 12.42L40.27 12.42L41.59 10.62L41.59 10.62Q42.18 11.43 42.91 11.76L42.91 11.76L42.91 11.76Q43.65 12.09 44.68 12.09L44.68 12.09L44.68 12.09Q45.51 12.09 45.92 11.86L45.92 11.86L45.92 11.86Q46.33 11.63 46.33 11.19L46.33 11.19L46.33 11.19Q46.33 10.84 45.89 10.63L45.89 10.63L45.89 10.63Q45.45 10.41 44.41 10.21L44.41 10.21L44.41 10.21Q43.14 9.96 42.31 9.61L42.31 9.61L42.31 9.61Q41.47 9.25 41.02 8.65L41.02 8.65L41.02 8.65Q40.56 8.05 40.56 7.12L40.56 7.12L40.56 7.12Q40.56 6.19 41.06 5.46L41.06 5.46L41.06 5.46Q41.56 4.72 42.53 4.31L42.53 4.31L42.53 4.31Q43.50 3.90 44.82 3.90L44.82 3.90ZM55.62 11.96L55.88 13.53L55.88 13.53Q55.50 13.79 54.92 13.94L54.92 13.94L54.92 13.94Q54.34 14.10 53.76 14.10L53.76 14.10L53.76 14.10Q52.42 14.10 51.72 13.53L51.72 13.53L51.72 13.53Q51.02 12.96 51 11.70L51 11.70L51 8.27L49.71 8.27L49.71 6.45L51 6.45L51 4.77L53.55 4.06L53.55 6.45L55.80 6.45L55.80 8.27L53.55 8.27L53.55 11.28L53.55 11.28Q53.55 12.29 54.54 12.29L54.54 12.29L54.54 12.29Q55.16 12.29 55.62 11.96L55.62 11.96ZM61.88 6.45L64.42 6.45L64.42 13.95L62.14 13.95L62.07 12.55L62.07 12.55Q61.37 14.10 59.48 14.10L59.48 14.10L59.48 14.10Q58.27 14.10 57.59 13.46L57.59 13.46L57.59 13.46Q56.91 12.82 56.91 11.46L56.91 11.46L56.91 6.45L59.46 6.45L59.46 10.81L59.46 10.81Q59.46 11.55 59.71 11.85L59.71 11.85L59.71 11.85Q59.97 12.15 60.49 12.15L60.49 12.15L60.49 12.15Q61.13 12.15 61.50 11.72L61.50 11.72L61.50 11.72Q61.88 11.29 61.88 10.42L61.88 10.42L61.88 6.45ZM69.17 5.92L69.17 6.45L71.45 6.45L71.45 8.27L69.31 8.27L69.31 13.95L66.77 13.95L66.77 8.27L65.56 8.27L65.56 6.45L66.77 6.45L66.77 5.76L66.77 5.76Q66.77 4.41 67.61 3.73L67.61 3.73L67.61 3.73Q68.45 3.06 69.80 3.06L69.80 3.06L69.80 3.06Q70.97 3.06 71.52 3.49L71.52 3.49L71.27 5.08L71.27 5.08Q70.94 4.84 70.41 4.84L70.41 4.84L70.41 4.84Q69.17 4.84 69.17 5.92L69.17 5.92ZM74.78 5.92L74.78 6.45L77.06 6.45L77.06 8.27L74.92 8.27L74.92 13.95L72.38 13.95L72.38 8.27L71.17 8.27L71.17 6.45L72.38 6.45L72.38 5.76L72.38 5.76Q72.38 4.41 73.22 3.73L73.22 3.73L73.22 3.73Q74.06 3.06 75.41 3.06L75.41 3.06L75.41 3.06Q76.58 3.06 77.13 3.49L77.13 3.49L76.88 5.08L76.88 5.08Q76.55 4.84 76.02 4.84L76.02 4.84L76.02 4.84Q74.78 4.84 74.78 5.92L74.78 5.92Z" transform="rotate(0 39.109375 8.580078125)"></path><defs id="SvgjsDefs1024"></defs></svg></g></svg>